<svg width="28" height="28" viewBox="0 0 28 28" fill="none" xmlns="http://www.w3.org/2000/svg">
<path d="M21 16.3333L25.6667 21L21 25.6666" stroke="white" stroke-width="2.33333" stroke-linecap="round" stroke-linejoin="round"/>
<path d="M21 2.33331L25.6667 6.99998L21 11.6666" stroke="white" stroke-width="2.33333" stroke-linecap="round" stroke-linejoin="round"/>
<path d="M2.33331 21H4.63515C5.38939 21.0051 6.13364 20.8274 6.80415 20.482C7.47467 20.1366 8.05147 19.6338 8.48515 19.0167L14.8481 8.98332C15.2818 8.36621 15.8586 7.86341 16.5291 7.518C17.1997 7.17258 17.9439 6.99484 18.6981 6.99999H25.6666" stroke="white" stroke-width="2.33333" stroke-linecap="round" stroke-linejoin="round"/>
<path d="M2.33331 6.99999H4.63398C5.50368 6.99394 6.35777 7.23105 7.09989 7.68456C7.84201 8.13808 8.44263 8.78996 8.83398 9.56666" stroke="white" stroke-width="2.33333" stroke-linecap="round" stroke-linejoin="round"/>
<path d="M25.6666 21H18.6188C17.8541 20.9922 17.1031 20.7966 16.4318 20.4304C15.7604 20.0642 15.1894 19.5387 14.7688 18.9L14.35 18.375" stroke="white" stroke-width="2.33333" stroke-linecap="round" stroke-linejoin="round"/>
</svg>
